<?xml version="1.0" ?><!DOCTYPE svg  PUBLIC '-//W3C//DTD SVG 1.1//EN'  'http://www.w3.org/Graphics/SVG/1.1/DTD/svg11.dtd'><svg style="enable-background:new 0 0 512 512;" version="1.1" viewBox="0 0 512 512" xml:space="preserve" xmlns="http://www.w3.org/2000/svg" xmlns:xlink="http://www.w3.org/1999/xlink"><g><g id="_x32_0-Search"/><g id="_x31_9-Web_Page"/><g id="_x31_8-Wifi"/><g id="_x31_7-Hotspot"/><g id="_x31_6-Satelite"/><g id="_x31_5-Receiver"/><g id="_x31_4-Receiver"><g><path d="M427.776,304.977H409V137.884c0-19.234-15.648-34.882-34.882-34.882      s-34.882,15.648-34.882,34.882v167.092H84.217C61.49,304.977,43,323.466,43,346.194v21.589C43,390.51,61.49,409,84.217,409      h343.56c22.728,0,41.217-18.49,41.217-41.217v-21.589C468.993,323.466,450.504,304.977,427.776,304.977z M374.118,129.002      c4.897,0,8.882,3.984,8.882,8.882v8.879h-17.764v-8.879C365.236,132.987,369.221,129.002,374.118,129.002z M365.236,172.764H383      v132.213h-17.764V172.764z M442.993,367.783c0,8.391-6.826,15.217-15.217,15.217H84.217C75.826,383,69,376.173,69,367.783      v-21.589c0-8.391,6.826-15.217,15.217-15.217c5.717,0,337.841,0,343.56,0c8.391,0,15.217,6.827,15.217,15.217V367.783z" style="fill:#2175AA;"/><path d="M125.467,343.988h-18.245c-7.18,0-13,5.82-13,13s5.82,13,13,13h18.245c7.18,0,13-5.82,13-13      S132.646,343.988,125.467,343.988z" style="fill:#2175AA;"/><path d="M404.367,343.988h-76.893c-7.18,0-13,5.82-13,13s5.82,13,13,13h76.893c7.18,0,13-5.82,13-13      S411.547,343.988,404.367,343.988z" style="fill:#2175AA;"/></g></g><g id="_x31_3-Receiver"/><g id="_x31_2-Ethernet"/><g id="_x31_1-Code"/><g id="_x31_0-Homegroup"/><g id="_x30_9-Sharing_Option"/><g id="_x30_8-Data"/><g id="_x30_7-Connectivity"/><g id="_x30_6-Computer"/><g id="_x30_5-Laptop"/><g id="_x30_4-Mobile"/><g id="_x30_3-Network"/><g id="_x30_2-Click"/><g id="_x30_1-Website"/></g></svg>